<?xml version="1.0" encoding="UTF-8"?><svg id="Capa_2" xmlns="http://www.w3.org/2000/svg" viewBox="0 0 149.45 235.11"><g id="logotipo"><path d="M66.1.44c2.8-.24,5.62-.39,8.46-.44"/><path d="M101.92,42.2c10.42-.39,13.93,4.17,14.72,19.67.64,9.64,1.17,12.37,3.12,16.54,2.73,5.99,7.94,8.99,15.5,8.99,4.56,0,9.11-.92,14.19-2.87v-3.39c-2.47.92-4.43,1.44-6.12,1.44-4.55,0-6.51-3-6.51-9.78,0-1.04,0-1.94.13-3.39v-2.73c0-13.54-9.25-23.57-23.96-26.04,9.24-.53,11.46-.92,15.5-3.13,6.51-3.65,10.29-9.89,10.29-17.31,0-6.26-2.48-11.6-7.3-15.12-5.47-4.02-11.07-5.08-27.09-5.08h-29.83c-2.85.05-5.67.2-8.46.44-6.46.55-12.78,1.58-18.94,3.11-9.64,2.38-17.82,5.67-24.52,9.88-7.23,4.55-12.81,9.9-16.74,16.07C1.97,35.67,0,42.14,0,48.92c0,7.53,2.49,13.68,7.48,18.42,4.99,4.75,11.46,7.12,19.42,7.12,8.99,0,18.24-3.37,27.72-10.12,6.23-4.38,11.37-10.12,15.43-17.25l3.02-5.78-3.75-3.45c-.31-.2-.98-.89-1.2-1.03l-2.87-2c-3.45-2.57-7-3.85-10.64-3.85-4.86,0-10.07,2.19-15.61,6.59-5.54,4.39-8.31,8.54-8.31,12.42,0,2.68,1.34,4.74,4.01,6.21-.35-1.67-.51-3.07-.51-4.23,0-4.65,1.49-8.48,4.48-11.47,3-2.98,6.8-4.48,11.42-4.48,5.18,0,10.69,2.65,16.57,7.92-3.72,8.1-7.72,14-11.99,17.72-3.03,2.65-6.66,4.76-10.87,6.37-4.23,1.59-8.3,2.39-12.22,2.39-7.41,0-13.42-2.19-18.04-6.59-4.61-4.4-6.93-10.11-6.93-17.13,0-11.16,5.18-20.95,15.53-29.4,10.74-8.71,25.39-13.16,43.94-14.07h10.42v80.36h-10.42v3.25h10.58v99.17h-4.86v-8.55h-2.67v34.43h2.67v-10.91h32.18v4.17c-.11,9.83-3.21,12.73-13.79,13.04v2.88h29.09v-2.88c-9.09.11-12.84-3.64-12.63-12.83v-4.39h31.12v10.91c.75,11.22-5.35,17.97-17.97,20.31v2.88l20.64-1.07v-56.56h-2.67v8.55h-43.43v-99.17h10.81v-3.25h-10.42v-41.42h7.17ZM94.75,3.26h9.64c7.03,0,9.9.65,12.25,2.87,2.47,2.47,3.64,6.63,3.64,13.67,0,15.25-3.25,19.14-15.88,19.14h-9.64V3.26Z"/></g></svg>